<?xml version="1.0" encoding="UTF-8" standalone="no"?>
<svg
   xmlns:dc="http://purl.org/dc/elements/1.1/"
   xmlns:cc="http://creativecommons.org/ns#"
   xmlns:rdf="http://www.w3.org/1999/02/22-rdf-syntax-ns#"
   xmlns:svg="http://www.w3.org/2000/svg"
   xmlns="http://www.w3.org/2000/svg"
   data-name="Layer 1"
   width="829.13137"
   height="587.67633"
   viewBox="0 0 829.13137 587.67633"
   version="1.1"
   id="svg162">
  <metadata
     id="metadata168">
    <rdf:RDF>
      <cc:Work
         rdf:about="">
        <dc:format>image/svg+xml</dc:format>
        <dc:type
           rdf:resource="http://purl.org/dc/dcmitype/StillImage" />
        <dc:title></dc:title>
      </cc:Work>
    </rdf:RDF>
  </metadata>
  <defs
     id="defs166">
    <radialGradient
       id="paint0_radial"
       cx="0"
       cy="0"
       r="1"
       gradientUnits="userSpaceOnUse"
       gradientTransform="matrix(73.3111,0,0,73.3111,61.8732,2.63097)">
      <stop
         offset="0.00343514"
         stop-color="#EF4857"
         id="stop995" />
      <stop
         offset="0.4689"
         stop-color="#D211EC"
         id="stop997" />
      <stop
         offset="1"
         stop-color="#7F52FF"
         id="stop999" />
    </radialGradient>
  </defs>
  <polygon
     points="85.757 572.858 99.518 572.857 106.065 519.775 85.754 519.776 85.757 572.858"
     fill="#ffb6b6"
     id="polygon2" />
  <path
     d="M270.70638,743.3758l42.31934-.00159v-.5352a16.47278,16.47278,0,0,0-16.47186-16.47161h-.001l-7.73017-5.86451-14.42279,5.86541-3.6942.00012Z"
     transform="translate(-185.43432 -156.16183)"
     fill="#2f2e41"
     id="path4" />
  <polygon
     points="107.98 508.635 118.814 517.121 156.702 479.371 140.712 466.846 107.98 508.635"
     fill="#ffb6b6"
     id="polygon6" />
  <path
     d="M284.17936,675.79953l33.31553,26.096.33005-.42131a16.47278,16.47278,0,0,0-2.80933-23.12453l-.0008-.00063-2.46884-9.38365L297.575,664.68859l-2.90822-2.278Z"
     transform="translate(-185.43432 -156.16183)"
     fill="#2f2e41"
     id="path8" />
  <path
     d="M358.205,422.93653s18.2647,18.94117,10.147,62.91176l6.815,75.288,1.75885,3.4852a11.05057,11.05057,0,0,1-2.05152,12.7927l0,0-1.44882,4.49294-1.35294,8.79411-50.39706,75.76471-19.27941-20.29412,31.11765-71.02941L325.0579,556.8777l-19.61765-63.58823L291.91084,609.64241l2.70588,100.11765h-25.895L252.67554,598.14241,235.76378,441.20123l8.79678-18.2647Z"
     transform="translate(-185.43432 -156.16183)"
     fill="#2f2e41"
     id="path10" />
  <path
     d="M239.9813,455.48237l-.18455-.25887c-9.85645-13.79924,4.96766-46.95846,7.20349-51.76534h0a12.068,12.068,0,0,1-8.26034-12.88863l.96382-8.193,1.00466-8.03624-7.19742-7.19743-.02023-.17949-4.142-36.24246-6.02235-24.07187a52.84836,52.84836,0,0,1,15.00007-51.21624l13.92059-2.21044,16.91786-16.30057h27.282l9.35438,8.93736c17.46254,3.06264,20.46254,2.06264,35.46254,20.06264l-6.81593,55.96246-1.70034,7.69872.00506,10.442,4.3228,4.80417a14.9496,14.9496,0,0,1,3.54622,12.93155l-.56848,2.84229h0c4.45834,1.91063,8.7126,35.86551,9.729,40.60831l1.51828,7.08466c1.29892,1.714,9.87263,13.146,9.87263,16.27119,0,.46921-.34634.92275-1.0896,1.4259-5.84288,3.95643-29.1375,32.0225-43.43072,26.303-15.22507-6.0876-75.74715,3.04481-76.35692,3.13784Z"
     transform="translate(-185.43432 -156.16183)"
     fill="#3f3d56"
     id="path12" />
  <path
     d="M236.3159,390.40721s7.006-39.59457-.05212-54.48539l-28,2,4.2612,56.48653,24.47719,62.71748a11.15409,11.15409,0,1,0,18.07814-6.46292Z"
     transform="translate(-185.43432 -156.16183)"
     fill="#ffb6b6"
     id="path14" />
  <path
     d="M208.26378,314.92182l1.73291-18.87121a54.10668,54.10668,0,0,1,19.40277-36.75185l0,0a23.68674,23.68674,0,0,1,24.78746-3.27207h0a23.63086,23.63086,0,0,1,12.2047,29.86636c-6.47152,16.97245-4.13467,34.92127-16.75349,37.10949l1.37095,6.52243-12.40737,40.49039-35.338-4.09353Z"
     transform="translate(-185.43432 -156.16183)"
     fill="#3f3d56"
     id="path16" />
  <path
     d="M394.64075,371.64072s-20.50947-34.58577-35.571-41.27186L339.147,350.14467l40.06691,40.04408,59.45621,31.5844a11.15409,11.15409,0,1,0,9.49054-16.68887Z"
     transform="translate(-185.43432 -156.16183)"
     fill="#ffb6b6"
     id="path18" />
  <path
     d="M324.148,332.70817l-10.99271-15.43651a54.1067,54.1067,0,0,1-9.25751-40.515l0,0a23.68675,23.68675,0,0,1,16.65778-18.6452h0a23.63089,23.63089,0,0,1,28.72919,14.68292c6.16209,17.08723,28.63861,45.17047,20.49917,55.05846l5.29279,4.05067,7.99879,22.78731L353.616,374.63235Z"
     transform="translate(-185.43432 -156.16183)"
     fill="#3f3d56"
     id="path20" />
  <circle
     cx="95.53081"
     cy="42.58672"
     r="30.29866"
     fill="#ffb6b6"
     id="circle22" />
  <path
     d="M258.97664,220.10456c-.26447-.23195-.51409-.47962-.77257-.718-.00927.02445-.01069.04951-.02056.07389Z"
     transform="translate(-185.43432 -156.16183)"
     fill="#2f2e41"
     id="path24" />
  <path
     d="M305.79474,166.7531a17.18191,17.18191,0,0,0-6.06724-5.84973,25.38007,25.38007,0,0,0-5.30373-1.8792l-4.795-1.30828a38.01279,38.01279,0,0,0-7.54406-1.519,19.41849,19.41849,0,0,0-17.73713,9.62263c-1.44868,2.56955-2.61073,5.77154-5.40672,6.71164-2.2545.75806-4.71428-.31122-7.08371-.10378a8.52953,8.52953,0,0,0-6.47573,4.77,18.38025,18.38025,0,0,0-1.6989,8.14123,45.619,45.619,0,0,0,14.52158,34.048c.782-2.0613-.506-4.28678-1.52419-6.25861-1.03025-1.99521-1.66692-4.77683.05858-6.21382,1.92-1.599,4.99614-.04843,7.26683-1.09117a5.07328,5.07328,0,0,0,2.5361-4.0766c.21979-1.65672-.00968-3.34077.09431-5.00877a12.54224,12.54224,0,0,1,13.41165-11.73009c5.16845.36919,10.18434,3.90094,15.15812,2.448,2.33471-.682,4.326-2.41847,6.74066-2.71055,2.6742-.32351,5.18987,1.1857,7.46056,2.63484A26.59618,26.59618,0,0,0,305.79474,166.7531Z"
     transform="translate(-185.43432 -156.16183)"
     fill="#2f2e41"
     id="path26" />
  <path
     d="M410.83368,726.35315l-7.71-12.39-1.54,7.08008c-.27,1.24-.54,2.5-.79,3.75-2.19-1.87011-4.52-3.60009-6.79981-5.26q-10.5-7.62012-20.99023-15.26l2.18994,12.69995c1.3501,7.82007,2.76025,15.80005,6.1001,22.95.37011.81005.77,1.6101,1.20019,2.39013h32.54a10.48736,10.48736,0,0,0,.54-2.24011.77479.77479,0,0,0,.00976-.15C416.09394,735.07312,413.41376,730.50317,410.83368,726.35315Z"
     transform="translate(-185.43432 -156.16183)"
     fill="#f0f0f0"
     id="path28" />
  <path
     d="M974.91649,712.97217l-13.98493-22.474-2.79345,12.8424c-.48978,2.24919-.97956,4.53469-1.433,6.802-3.97229-3.39217-8.19877-6.53014-12.334-9.541q-19.04573-13.822-38.07373-27.6798l3.97229,23.03617c2.44891,14.18465,5.00676,28.65936,11.06483,41.62841.67135,1.46935,1.39672,2.92054,2.177,4.33542h59.02367a19.0236,19.0236,0,0,0,.97957-4.06329,1.40483,1.40483,0,0,0,.01771-.27213C984.458,728.78914,979.59644,720.49981,974.91649,712.97217Z"
     transform="translate(-185.43432 -156.16183)"
     fill="#f0f0f0"
     id="path30" />
  <path
     d="M1013.375,743.53083l-826.75.30734a1.19069,1.19069,0,0,1,0-2.38137l826.75-.30734a1.19069,1.19069,0,0,1,0,2.38137Z"
     transform="translate(-185.43432 -156.16183)"
     fill="#cacaca"
     id="path32" />
  <path
     d="M444.83223,394.45926V681.48318A13.80575,13.80575,0,0,0,458.627,695.278h425.34a13.80568,13.80568,0,0,0,13.79481-13.79481V394.45926A13.81238,13.81238,0,0,0,883.967,380.6797H458.627A13.81244,13.81244,0,0,0,444.83223,394.45926Z"
     transform="translate(-185.43432 -156.16183)"
     fill="#3f3d56"
     id="path34" />
  <path
     d="M454.8105,398.03051v279.912a7.38533,7.38533,0,0,0,7.37255,7.37255H880.42634a7.38528,7.38528,0,0,0,7.37256-7.37255v-279.912a7.38861,7.38861,0,0,0-7.37256-7.3879H462.18305A7.38866,7.38866,0,0,0,454.8105,398.03051Z"
     transform="translate(-185.43432 -156.16183)"
     fill="#fff"
     id="path36" />
  <path
     d="M435.93667,737.4605a8.27165,8.27165,0,0,0,6.5087,3.114h455.4391a8.3806,8.3806,0,0,0,8.19191-10.0996l-7.06983-33.58132a8.39574,8.39574,0,0,0-5.21812-6.088,8.12058,8.12058,0,0,0-2.97378-.561H449.48711a8.11987,8.11987,0,0,0-2.97378.561,8.395,8.395,0,0,0-5.21812,6.088l-7.06983,33.58132A8.37419,8.37419,0,0,0,435.93667,737.4605Z"
     transform="translate(-185.43432 -156.16183)"
     fill="#2f2e41"
     id="path38" />
  <rect
     x="873.55259"
     y="696.29254"
     width="14.02732"
     height="8.41639"
     rx="0.48819"
     transform="translate(1575.69819 1244.83964) rotate(-180)"
     fill="#3f3d56"
     id="rect40" />
  <rect
     x="845.49795"
     y="696.29254"
     width="14.02732"
     height="8.41639"
     rx="0.48819"
     transform="translate(1519.58891 1244.83964) rotate(-180)"
     fill="#3f3d56"
     id="rect42" />
  <rect
     x="817.44331"
     y="696.29254"
     width="14.02732"
     height="8.41639"
     rx="0.48819"
     transform="translate(1463.47963 1244.83964) rotate(-180)"
     fill="#3f3d56"
     id="rect44" />
  <rect
     x="789.38867"
     y="696.29254"
     width="14.02732"
     height="8.41639"
     rx="0.48819"
     transform="translate(1407.37035 1244.83964) rotate(-180)"
     fill="#3f3d56"
     id="rect46" />
  <rect
     x="761.33403"
     y="696.29254"
     width="14.02732"
     height="8.41639"
     rx="0.48819"
     transform="translate(1351.26107 1244.83964) rotate(-180)"
     fill="#3f3d56"
     id="rect48" />
  <rect
     x="733.27939"
     y="696.29254"
     width="14.02732"
     height="8.41639"
     rx="0.48819"
     transform="translate(1295.15179 1244.83964) rotate(-180)"
     fill="#3f3d56"
     id="rect50" />
  <rect
     x="705.22475"
     y="696.29254"
     width="14.02732"
     height="8.41639"
     rx="0.48819"
     transform="translate(1239.04251 1244.83964) rotate(-180)"
     fill="#3f3d56"
     id="rect52" />
  <rect
     x="677.17011"
     y="696.29254"
     width="14.02732"
     height="8.41639"
     rx="0.48819"
     transform="translate(1182.93323 1244.83964) rotate(-180)"
     fill="#3f3d56"
     id="rect54" />
  <rect
     x="649.11547"
     y="696.29254"
     width="14.02732"
     height="8.41639"
     rx="0.48819"
     transform="translate(1126.82395 1244.83964) rotate(-180)"
     fill="#3f3d56"
     id="rect56" />
  <rect
     x="621.06083"
     y="696.29254"
     width="14.02732"
     height="8.41639"
     rx="0.48819"
     transform="translate(1070.71467 1244.83964) rotate(-180)"
     fill="#3f3d56"
     id="rect58" />
  <rect
     x="593.00619"
     y="696.29254"
     width="14.02732"
     height="8.41639"
     rx="0.48819"
     transform="translate(1014.60539 1244.83964) rotate(-180)"
     fill="#3f3d56"
     id="rect60" />
  <rect
     x="564.95155"
     y="696.29254"
     width="14.02732"
     height="8.41639"
     rx="0.48819"
     transform="translate(958.49611 1244.83964) rotate(-180)"
     fill="#3f3d56"
     id="rect62" />
  <rect
     x="536.89691"
     y="696.29254"
     width="14.02732"
     height="8.41639"
     rx="0.48819"
     transform="translate(902.38683 1244.83964) rotate(-180)"
     fill="#3f3d56"
     id="rect64" />
  <rect
     x="508.84227"
     y="696.29254"
     width="14.02732"
     height="8.41639"
     rx="0.48819"
     transform="translate(846.27755 1244.83964) rotate(-180)"
     fill="#3f3d56"
     id="rect66" />
  <rect
     x="480.78763"
     y="696.29254"
     width="14.02732"
     height="8.41639"
     rx="0.48819"
     transform="translate(790.16827 1244.83964) rotate(-180)"
     fill="#3f3d56"
     id="rect68" />
  <rect
     x="452.733"
     y="696.29254"
     width="14.02732"
     height="8.41639"
     rx="0.48819"
     transform="translate(734.05899 1244.83964) rotate(-180)"
     fill="#3f3d56"
     id="rect70" />
  <rect
     x="873.8841"
     y="710.31986"
     width="14.02732"
     height="8.41639"
     rx="0.48819"
     transform="translate(1576.3612 1272.89428) rotate(-180)"
     fill="#3f3d56"
     id="rect72" />
  <rect
     x="845.82946"
     y="710.31986"
     width="14.02732"
     height="8.41639"
     rx="0.48819"
     transform="translate(1520.25192 1272.89428) rotate(-180)"
     fill="#3f3d56"
     id="rect74" />
  <rect
     x="817.77482"
     y="710.31986"
     width="14.02732"
     height="8.41639"
     rx="0.48819"
     transform="translate(1464.14264 1272.89428) rotate(-180)"
     fill="#3f3d56"
     id="rect76" />
  <rect
     x="789.72018"
     y="710.31986"
     width="14.02732"
     height="8.41639"
     rx="0.48819"
     transform="translate(1408.03336 1272.89428) rotate(-180)"
     fill="#3f3d56"
     id="rect78" />
  <rect
     x="761.66554"
     y="710.31986"
     width="14.02732"
     height="8.41639"
     rx="0.48819"
     transform="translate(1351.92408 1272.89428) rotate(-180)"
     fill="#3f3d56"
     id="rect80" />
  <rect
     x="733.6109"
     y="710.31986"
     width="14.02732"
     height="8.41639"
     rx="0.48819"
     transform="translate(1295.8148 1272.89428) rotate(-180)"
     fill="#3f3d56"
     id="rect82" />
  <rect
     x="705.55626"
     y="710.31986"
     width="14.02732"
     height="8.41639"
     rx="0.48819"
     transform="translate(1239.70552 1272.89428) rotate(-180)"
     fill="#3f3d56"
     id="rect84" />
  <rect
     x="677.50162"
     y="710.31986"
     width="14.02732"
     height="8.41639"
     rx="0.48819"
     transform="translate(1183.59624 1272.89428) rotate(-180)"
     fill="#3f3d56"
     id="rect86" />
  <rect
     x="649.44698"
     y="710.31986"
     width="14.02732"
     height="8.41639"
     rx="0.48819"
     transform="translate(1127.48696 1272.89428) rotate(-180)"
     fill="#3f3d56"
     id="rect88" />
  <rect
     x="621.39234"
     y="710.31986"
     width="14.02732"
     height="8.41639"
     rx="0.48819"
     transform="translate(1071.37768 1272.89428) rotate(-180)"
     fill="#3f3d56"
     id="rect90" />
  <rect
     x="593.3377"
     y="710.31986"
     width="14.02732"
     height="8.41639"
     rx="0.48819"
     transform="translate(1015.2684 1272.89428) rotate(-180)"
     fill="#3f3d56"
     id="rect92" />
  <rect
     x="565.28306"
     y="710.31986"
     width="14.02732"
     height="8.41639"
     rx="0.48819"
     transform="translate(959.15912 1272.89428) rotate(-180)"
     fill="#3f3d56"
     id="rect94" />
  <rect
     x="537.22842"
     y="710.31986"
     width="14.02732"
     height="8.41639"
     rx="0.48819"
     transform="translate(903.04984 1272.89428) rotate(-180)"
     fill="#3f3d56"
     id="rect96" />
  <rect
     x="509.17378"
     y="710.31986"
     width="14.02732"
     height="8.41639"
     rx="0.48819"
     transform="translate(846.94056 1272.89428) rotate(-180)"
     fill="#3f3d56"
     id="rect98" />
  <rect
     x="481.11914"
     y="710.31986"
     width="14.02732"
     height="8.41639"
     rx="0.48819"
     transform="translate(790.83128 1272.89428) rotate(-180)"
     fill="#3f3d56"
     id="rect100" />
  <rect
     x="453.0645"
     y="710.31986"
     width="14.02732"
     height="8.41639"
     rx="0.48819"
     transform="translate(734.722 1272.89428) rotate(-180)"
     fill="#3f3d56"
     id="rect102" />
  <rect
     x="610.03059"
     y="727.15265"
     width="112.21856"
     height="8.41639"
     rx="0.48819"
     transform="translate(1146.84542 1306.55985) rotate(-180)"
     fill="#3f3d56"
     id="rect104" />
  <path
     d="M657.7454,520.152l.015-.00292a2.69667,2.69667,0,0,0,.28733-.30608Z"
     transform="translate(-185.43432 -156.16183)"
     fill="#834cff"
     id="path126" />
  <path
     d="M697.7157,596.7025l.00442.00976.08787-.16923Z"
     transform="translate(-185.43432 -156.16183)"
     fill="#834cff"
     id="path136" />
  <path
     d="M864.96638,441.31617H477.643a1.01559,1.01559,0,0,1,0-2.03069H864.96638a1.01559,1.01559,0,0,1,0,2.03069Z"
     transform="translate(-185.43432 -156.16183)"
     fill="#cacaca"
     id="path144" />
  <ellipse
     cx="314.5638"
     cy="259.77067"
     rx="10.92534"
     ry="11.16881"
     fill="#3f3d56"
     id="ellipse146" />
  <ellipse
     cx="352.30587"
     cy="259.77067"
     rx="10.92534"
     ry="11.16881"
     fill="#3f3d56"
     id="ellipse148" />
  <ellipse
     cx="390.04794"
     cy="259.77067"
     rx="10.92534"
     ry="11.16881"
     fill="#3f3d56"
     id="ellipse150" />
  <path
     d="M842.34936,407.532h-26.81a2.0304,2.0304,0,0,0,0,4.06h26.81a2.0304,2.0304,0,0,0,0-4.06Z"
     transform="translate(-185.43432 -156.16183)"
     fill="#3f3d56"
     id="path152" />
  <path
     d="M842.34936,415.152h-26.81a2.0304,2.0304,0,0,0,0,4.06h26.81a2.0304,2.0304,0,0,0,0-4.06Z"
     transform="translate(-185.43432 -156.16183)"
     fill="#3f3d56"
     id="path154" />
  <path
     d="M842.34936,422.762h-26.81a2.0304,2.0304,0,0,0,0,4.06h26.81a2.0304,2.0304,0,0,0,0-4.06Z"
     transform="translate(-185.43432 -156.16183)"
     fill="#3f3d56"
     id="path156" />
  <g
     style="fill:none"
     id="g1015"
     transform="matrix(2.21099,0,0,2.21099,415.1187,336.38814)">
    <path
       d="M 64,64 H 0 V 0 H 64 L 31.3373,31.5369 Z"
       fill="url(#paint0_radial)"
       id="path993"
       style="fill:url(#paint0_radial)" />
  </g>
</svg>
