<?xml version="1.0" encoding="UTF-8" standalone="no"?>
<svg
   width="64.0px"
   height="64.0px"
   viewBox="0 0 64.0 64.0"
   version="1.1"
   id="SVGRoot"
   sodipodi:docname="tegral_logo_v2_niwen.svg"
   inkscape:version="1.2.2 (b0a8486541, 2022-12-01)"
   xml:space="preserve"
   inkscape:export-filename="tegral_logo_v2_openapi.png"
   inkscape:export-xdpi="384"
   inkscape:export-ydpi="384"
   xmlns:inkscape="http://www.inkscape.org/namespaces/inkscape"
   xmlns:sodipodi="http://sodipodi.sourceforge.net/DTD/sodipodi-0.dtd"
   xmlns:xlink="http://www.w3.org/1999/xlink"
   xmlns="http://www.w3.org/2000/svg"
   xmlns:svg="http://www.w3.org/2000/svg"
   xmlns:rdf="http://www.w3.org/1999/02/22-rdf-syntax-ns#"
   xmlns:cc="http://creativecommons.org/ns#"
   xmlns:dc="http://purl.org/dc/elements/1.1/"><defs
     id="defs833"><linearGradient
       inkscape:collect="always"
       id="linearGradient1352"><stop
         style="stop-color:#454545;stop-opacity:1;"
         offset="0"
         id="stop1348" /><stop
         style="stop-color:#a0a0a0;stop-opacity:1;"
         offset="1"
         id="stop1350" /></linearGradient><linearGradient
       inkscape:collect="always"
       id="linearGradient1322"><stop
         style="stop-color:#a27527;stop-opacity:1;"
         offset="0"
         id="stop1318" /><stop
         style="stop-color:#d8c039;stop-opacity:1;"
         offset="1"
         id="stop1320" /></linearGradient><linearGradient
       inkscape:collect="always"
       xlink:href="#linearGradient1322"
       id="linearGradient1467"
       x1="32"
       y1="66.133331"
       x2="32"
       y2="-2.1333334"
       gradientUnits="userSpaceOnUse" /><linearGradient
       inkscape:collect="always"
       xlink:href="#linearGradient1352"
       id="linearGradient1469"
       gradientUnits="userSpaceOnUse"
       x1="32"
       y1="66.133331"
       x2="32"
       y2="-2.1333334" /><style
       id="style472">.cls-1{fill:none;}</style><style
       id="style5533">.cls-1{fill:none;}</style><style
       id="style15852">
      .cls-1 {
        fill: none;
      }
    </style></defs><sodipodi:namedview
     id="base"
     pagecolor="#ffffff"
     bordercolor="#666666"
     borderopacity="1.0"
     inkscape:pageopacity="0.0"
     inkscape:pageshadow="2"
     inkscape:zoom="7.9195959"
     inkscape:cx="25.001276"
     inkscape:cy="40.279833"
     inkscape:document-units="px"
     inkscape:current-layer="layer1"
     inkscape:document-rotation="0"
     showgrid="true"
     inkscape:window-width="2048"
     inkscape:window-height="1099"
     inkscape:window-x="0"
     inkscape:window-y="0"
     inkscape:window-maximized="1"
     inkscape:snap-page="true"
     showguides="true"
     inkscape:object-paths="true"
     inkscape:showpageshadow="2"
     inkscape:pagecheckerboard="0"
     inkscape:deskcolor="#d1d1d1"><inkscape:grid
       type="xygrid"
       id="grid1403"
       empspacing="4" /></sodipodi:namedview><metadata
     id="metadata836"><rdf:RDF><cc:Work
         rdf:about=""><dc:format>image/svg+xml</dc:format><dc:type
           rdf:resource="http://purl.org/dc/dcmitype/StillImage" /></cc:Work></rdf:RDF></metadata><g
     inkscape:label="Calque 1"
     inkscape:groupmode="layer"
     id="layer1"><g
       id="g1419"
       style="fill:url(#linearGradient1467);fill-opacity:1;stroke:none;stroke-width:4.26667;stroke-linecap:round;stroke-linejoin:miter;stroke-miterlimit:4;stroke-dasharray:none;stroke-opacity:1"><path
         id="rect1412"
         style="fill:url(#linearGradient1469);fill-opacity:1;stroke:none;stroke-width:4.26667;stroke-linecap:round;stroke-linejoin:miter;stroke-miterlimit:4;stroke-dasharray:none;stroke-opacity:1;paint-order:fill markers stroke"
         d="M 28,0 C 28,0 0,0 0,32 0,64 28,64 28,64 H 64 V 0 Z"
         sodipodi:nodetypes="czcccc" /></g><g
       id="g15877"
       transform="matrix(1.25,0,0,1.25,16,12)"><circle
         cx="21.5"
         cy="10.5"
         r="1.5"
         id="circle15856"
         style="fill:#ffffff" /><path
         d="m 28.5,1 a 2.4518,2.4518 0 0 0 -1.2061,0.3105 l -8.3105,4.2979 0.0027,0.0054 a 5.497,5.497 0 1 0 7.3257,7.5444 l 0.0031,0.0015 4.4,-8.5 A 2.5,2.5 0 0 0 28.5,1 Z m -7,13 A 3.5,3.5 0 1 1 25,10.5 3.5042,3.5042 0 0 1 21.5,14 Z M 28.9414,3.7354 26.5571,8.3408 A 5.5279,5.5279 0 0 0 23.658,5.4424 l 4.5949,-2.377 A 0.5165,0.5165 0 0 1 29,3.5 0.4985,0.4985 0 0 1 28.9414,3.7354 Z"
         id="path15858"
         style="fill:#ffffff" /><path
         d="m 19,20 h 7 v -2 h -9 v 10 a 2.0027,2.0027 0 0 0 2,2 h 3 v -2 h -3 z"
         id="path15860"
         style="fill:#ffffff" /><path
         d="M 12,30 H 9 v -2 h 3 V 15.5664 l -3.5146,-2.1089 1.0292,-1.7148 3.5147,2.1084 A 2.0115,2.0115 0 0 1 14,15.5664 V 28 a 2.0024,2.0024 0 0 1 -2,2 z"
         id="path15862"
         style="fill:#ffffff" /><path
         d="M 17.3079,2.2852 A 9.4882,9.4882 0 0 0 15,2 8.0275,8.0275 0 0 0 8.0786,6.001 C 8.0525,6 8.0264,6 8,6 A 6,6 0 0 0 8,18 V 16 A 4,4 0 0 1 8,8 2.7009,2.7009 0 0 1 8.387,8.0391 L 9.25,8.1533 9.5586,7.4858 A 6.0192,6.0192 0 0 1 15,4 7.499,7.499 0 0 1 16.731,4.2148 Z"
         id="path15864"
         style="fill:#ffffff" /><rect
         id="_Transparent_Rectangle_"
         data-name="&lt;Transparent Rectangle&gt;"
         class="cls-1"
         width="32"
         height="32"
         x="0"
         y="0" /></g></g></svg>
