<?xml version="1.0" encoding="UTF-8" standalone="no"?>
<svg
   width="64.0px"
   height="64.0px"
   viewBox="0 0 64.0 64.0"
   version="1.1"
   id="SVGRoot"
   sodipodi:docname="tegral_logo_v2_openapi.svg"
   inkscape:version="1.2.2 (b0a8486541, 2022-12-01)"
   xml:space="preserve"
   inkscape:export-filename="tegral_logo_v2_openapi.png"
   inkscape:export-xdpi="384"
   inkscape:export-ydpi="384"
   xmlns:inkscape="http://www.inkscape.org/namespaces/inkscape"
   xmlns:sodipodi="http://sodipodi.sourceforge.net/DTD/sodipodi-0.dtd"
   xmlns:xlink="http://www.w3.org/1999/xlink"
   xmlns="http://www.w3.org/2000/svg"
   xmlns:svg="http://www.w3.org/2000/svg"
   xmlns:rdf="http://www.w3.org/1999/02/22-rdf-syntax-ns#"
   xmlns:cc="http://creativecommons.org/ns#"
   xmlns:dc="http://purl.org/dc/elements/1.1/"><defs
     id="defs833"><linearGradient
       inkscape:collect="always"
       id="linearGradient1352"><stop
         style="stop-color:#136b20;stop-opacity:1;"
         offset="0"
         id="stop1348" /><stop
         style="stop-color:#16e027;stop-opacity:1;"
         offset="1"
         id="stop1350" /></linearGradient><linearGradient
       inkscape:collect="always"
       id="linearGradient1322"><stop
         style="stop-color:#a27527;stop-opacity:1;"
         offset="0"
         id="stop1318" /><stop
         style="stop-color:#d8c039;stop-opacity:1;"
         offset="1"
         id="stop1320" /></linearGradient><linearGradient
       inkscape:collect="always"
       xlink:href="#linearGradient1322"
       id="linearGradient1467"
       x1="32"
       y1="66.133331"
       x2="32"
       y2="-2.1333334"
       gradientUnits="userSpaceOnUse" /><linearGradient
       inkscape:collect="always"
       xlink:href="#linearGradient1352"
       id="linearGradient1469"
       gradientUnits="userSpaceOnUse"
       x1="32"
       y1="66.133331"
       x2="32"
       y2="-2.1333334" /><style
       id="style472">.cls-1{fill:none;}</style><style
       id="style5533">.cls-1{fill:none;}</style></defs><sodipodi:namedview
     id="base"
     pagecolor="#ffffff"
     bordercolor="#666666"
     borderopacity="1.0"
     inkscape:pageopacity="0.0"
     inkscape:pageshadow="2"
     inkscape:zoom="7.9195959"
     inkscape:cx="25.001275"
     inkscape:cy="40.279833"
     inkscape:document-units="px"
     inkscape:current-layer="layer1"
     inkscape:document-rotation="0"
     showgrid="false"
     inkscape:window-width="2048"
     inkscape:window-height="1099"
     inkscape:window-x="0"
     inkscape:window-y="0"
     inkscape:window-maximized="1"
     inkscape:snap-page="true"
     showguides="true"
     inkscape:object-paths="true"
     inkscape:showpageshadow="2"
     inkscape:pagecheckerboard="0"
     inkscape:deskcolor="#d1d1d1"><inkscape:grid
       type="xygrid"
       id="grid1403"
       empspacing="4" /></sodipodi:namedview><metadata
     id="metadata836"><rdf:RDF><cc:Work
         rdf:about=""><dc:format>image/svg+xml</dc:format><dc:type
           rdf:resource="http://purl.org/dc/dcmitype/StillImage" /></cc:Work></rdf:RDF></metadata><g
     inkscape:label="Calque 1"
     inkscape:groupmode="layer"
     id="layer1"><g
       id="g1419"
       style="fill:url(#linearGradient1467);fill-opacity:1;stroke:none;stroke-width:4.26667;stroke-linecap:round;stroke-linejoin:miter;stroke-miterlimit:4;stroke-dasharray:none;stroke-opacity:1"><path
         id="rect1412"
         style="fill:url(#linearGradient1469);fill-opacity:1;stroke:none;stroke-width:4.26667;stroke-linecap:round;stroke-linejoin:miter;stroke-miterlimit:4;stroke-dasharray:none;stroke-opacity:1;paint-order:fill markers stroke"
         d="M 28,0 C 28,0 0,0 0,32 0,64 28,64 28,64 H 64 V 0 Z"
         sodipodi:nodetypes="czcccc" /></g><g
       id="g5554"
       transform="matrix(1.5,0,0,1.5,10,8)"><path
         d="M 8,9 H 4 a 2,2 0 0 0 -2,2 v 12 h 2 v -5 h 4 v 5 h 2 V 11 A 2,2 0 0 0 8,9 Z m -4,7 v -5 h 4 v 5 z"
         id="path5539"
         style="fill:#ffffff" /><polygon
         points="30,21 27,21 27,11 30,11 30,9 22,9 22,11 25,11 25,21 22,21 22,23 30,23 "
         id="polygon5541"
         style="fill:#ffffff" /><path
         d="M 14,23 H 12 V 9 h 6 a 2,2 0 0 1 2,2 v 5 a 2,2 0 0 1 -2,2 h -4 z m 0,-7 h 4 v -5 h -4 z"
         id="path5543"
         style="fill:#ffffff" /><rect
         id="_Transparent_Rectangle_"
         data-name="&lt;Transparent Rectangle&gt;"
         class="cls-1"
         width="32"
         height="32"
         x="0"
         y="0" /></g></g></svg>
